<?xml version="1.0" encoding="utf-8"?>
<!-- Generator: Adobe Illustrator 17.1.0, SVG Export Plug-In . SVG Version: 6.00 Build 0)  -->
<!DOCTYPE svg PUBLIC "-//W3C//DTD SVG 1.1//EN" "http://www.w3.org/Graphics/SVG/1.1/DTD/svg11.dtd">
<svg version="1.1" id="Layer_1" xmlns="http://www.w3.org/2000/svg" xmlns:xlink="http://www.w3.org/1999/xlink" x="0px" y="0px"
	 viewBox="72 72 72 72" enable-background="new 72 72 72 72" xml:space="preserve">
<ellipse fill="#262262" stroke="#262262" stroke-miterlimit="10" cx="108.2" cy="108" rx="35.9" ry="35.5"/>
<rect x="80" y="80.1" fill="#FFFFFF" stroke="#FFFFFF" stroke-miterlimit="10" width="56.2" height="55.6"/>
<text transform="matrix(1.0116 0 0 1 83.8281 115.5957)" fill="#262262" font-family="'Times-Bold'" font-size="47.0195">F</text>
<text transform="matrix(1.0116 0 0 1 108.2891 130.877)" fill="#262262" font-family="'Times-Bold'" font-size="47.0195">S</text>
<path fill="#262262" d="M85.5,121.1c0,0-0.6,7.1,6.4,8.5C91.9,129.6,93,123.8,85.5,121.1z"/>
<path fill="#262262" d="M94.2,128.6c0,0,4.3-4.1-0.3-10.6C94,117.9,89.4,123.4,94.2,128.6"/>
<path fill="#262262" d="M102.6,121.1c0,0,0.6,7.1-6.4,8.5C96.1,129.6,95,123.8,102.6,121.1z"/>
<ellipse fill="none" stroke="#262262" stroke-miterlimit="10" cx="94" cy="129.1" rx="10.4" ry="3.2"/>
</svg>
